<svg xmlns="http://www.w3.org/2000/svg"
shape-rendering="geometricPrecision"
width="512" height="512" viewBox="27.5 277 200 200"><rect x="27.5" y="277" width="200" height="200" fill="transparent" />
  <metadata>null</metadata>

<path d="
M 34.957 357.597
C 35.839 353.665 36.162 349.82 37.616 345.996
C 42.516 333.109 54.037 323.227 68.368 324.258
C 68.865 304.063 82.922 282.608 104.953 283.199
C 108.326 283.289 111.611 283.836 114.804 284.941
C 118.462 286.207 121.986 288.17 124.904 290.728
C 126.65 292.259 127.912 294.238 129.568 295.832
C 130.925 294.746 131.843 293.007 133.15 291.815
C 136.289 288.952 140.295 286.966 144.276 285.594
C 148.467 284.15 153.112 283.676 157.507 284.266
C 160.965 284.729 164.334 285.667 167.486 287.176
C 185.852 295.967 190.958 318.478 189.678 337.078
C 189.466 340.155 188.799 343.085 188.345 346.101
C 197.551 349.612 204.354 359.104 203.763 369.223
C 207.144 370.193 209.998 370.84 212.859 373.148
C 223.883 382.039 221.891 399.875 213.477 409.779
C 210.024 413.845 205.888 416.53 200.945 418.459
C 200.656 419.453 200.876 420.754 200.847 421.793
C 200.796 423.624 200.534 425.451 200.259 427.261
C 199.28 433.704 196.939 440.085 193.77 445.761
C 184.025 463.217 163.381 473.768 143.562 469.223
C 138.865 468.146 134.529 466.614 130.54 463.84
C 129.086 463.822 127.383 464.997 125.991 465.469
C 123.212 466.412 120.354 467.169 117.469 467.711
C 107.395 469.606 96.238 468.943 86.611 465.332
C 71.159 459.537 59.023 447.933 53.056 432.463
C 49.4 422.985 47.994 412.756 44.747 403.127
C 39.782 388.409 33.073 373.542 34.957 357.597 Z
M 140.263 347.615
C 140.842 347.362 141.345 347.144 141.817 346.716
C 145.916 344.58 150.165 343.265 154.868 344.081
C 157.012 344.453 158.94 345.569 161.027 345.987
C 161.714 346.651 162.673 347.046 163.516 347.474
C 164.799 348.756 166.063 350.062 167.324 351.356
C 167.636 351.42 168.408 350.402 168.612 350.199
C 169.861 348.954 171.36 347.977 172.907 347.132
C 175.358 345.793 177.939 345.052 180.737 345.065
C 182.499 345.073 184.562 345.582 186.276 345.359
C 188.783 331.231 188.206 315.915 180.954 303.163
C 173.431 289.934 157.959 282.561 143.269 288.283
C 140.398 289.401 137.673 291.09 135.303 293.058
C 133.122 294.802 131.696 297.695 129.54 299.277
C 128.299 298.315 127.479 296.754 126.43 295.587
C 124.174 293.079 121.756 290.933 118.802 289.274
C 106.574 282.406 90.483 285.304 81.375 296.017
C 76.468 301.685 73.541 308.471 71.896 315.724
C 71.308 318.318 70.804 321.067 70.741 323.733
C 70.727 324.328 71.038 326.017 70.516 326.444
C 60.956 325.894 52.152 328.903 45.871 336.376
C 43.683 339.093 41.922 342.033 40.504 345.215
C 30.812 366.97 43.195 388.369 49.14 409.123
C 51.203 416.323 52.393 423.782 54.931 430.842
C 58.017 439.422 63.416 447.048 70.171 453.111
C 81.592 463.361 97.304 467.789 112.461 466.072
C 116.669 465.595 120.736 464.676 124.798 463.504
C 125.426 463.323 128.451 462.535 128.349 462.159
C 122.911 458.765 117.111 451.783 115.409 445.537
C 115.176 444.833 114.964 444.119 114.495 443.532
C 112.947 437.443 111.334 431.359 111.907 424.994
C 112.158 422.205 112.36 419.275 112.988 416.543
C 113.356 414.94 114.275 413.135 114.32 411.492
C 114.359 410.053 112.221 408.136 111.495 406.962
C 109.667 404.009 108.679 400.684 107.89 397.326
C 105.336 386.444 109.703 373.321 119.614 367.675
C 121.535 366.581 123.839 365.754 126.029 365.463
C 127.113 365.319 128.288 365.6 129.332 365.38
C 129.515 364.257 129.736 363.117 129.947 361.996
C 130.3 361.151 130.588 360.303 130.852 359.426
C 132.704 355.181 135.639 349.407 140.263 347.615 Z
M 109.962 387.096
C 109.112 392.398 110.037 398.457 112.268 403.323
C 113.119 405.179 114.204 406.849 115.411 408.488
C 115.997 409.282 116.92 409.947 116.892 410.986
C 116.085 415.16 114.869 419.202 114.423 423.481
C 113.561 431.755 115.272 440.451 119.012 447.871
C 120.863 451.541 123.308 454.763 126.324 457.55
C 129.116 460.129 132.129 462.621 135.609 464.217
C 151.284 471.403 169.708 468.013 182.365 456.483
C 190.529 449.045 195.676 438.899 197.913 428.155
C 198.698 424.386 198.516 420.659 199.027 416.887
C 201.726 415.609 204.472 414.637 206.94 412.898
C 212.67 408.859 216.609 402.085 217.866 395.235
C 219.75 384.974 214.23 371.11 201.997 371.372
C 201.453 370.757 201.705 369.366 201.686 368.557
C 201.641 366.591 201.331 364.581 200.759 362.699
C 197.825 353.03 189.656 345.911 179.121 347.54
C 176.006 348.021 173.167 349.46 170.718 351.414
C 170.002 351.984 168.027 354.535 167.171 354.408
C 164.769 352.139 163.003 349.708 159.972 348.171
C 152.265 344.264 142.278 346.52 136.893 353.395
C 133.606 357.591 131.665 362.55 130.722 367.764
C 129.112 368.191 127.108 367.568 125.411 367.808
C 122.348 368.243 119.127 370.273 116.913 372.363
C 112.632 376.293 111.117 381.634 109.962 387.096 Z"
opacity="1" fill="rgb(16,20,33)" fill-rule="evenodd" />
<path d="
M 47.962 356.596
C 49.719 347.819 55.565 339.425 65.467 340.288
C 67.069 340.427 68.658 340.918 70.121 341.575
C 71.874 342.362 73.604 343.399 75.026 344.701
C 82.911 351.925 86.626 364.402 84.366 374.843
C 82.705 382.517 77.468 391.104 68.55 390.799
C 66.49 390.728 64.499 390.114 62.614 389.324
C 60.727 388.532 58.957 387.444 57.416 386.098
C 49.54 379.22 45.924 366.778 47.962 356.596 Z
M 48.937 360.608
C 48.516 369.59 52.118 380.261 59.567 385.725
C 61.138 386.878 62.941 387.763 64.785 388.387
C 66.14 388.846 67.581 389.167 69.017 389.137
C 78.538 388.936 82.788 378.63 83.392 370.473
C 84.119 360.647 79.518 348.201 70.502 343.286
C 68.918 342.423 67.366 341.945 65.571 341.797
C 54.849 340.91 49.379 351.19 48.937 360.608 Z"
opacity="0.996" fill="rgb(167,98,72)" fill-rule="evenodd" />
<path d="
M 48.937 360.608
C 49.379 351.19 54.849 340.91 65.571 341.797
C 67.366 341.945 68.918 342.423 70.502 343.286
C 79.518 348.201 84.119 360.647 83.392 370.473
C 82.788 378.63 78.538 388.936 69.017 389.137
C 67.581 389.167 66.14 388.846 64.785 388.387
C 62.941 387.763 61.138 386.878 59.567 385.725
C 52.118 380.261 48.516 369.59 48.937 360.608 Z"
opacity="1" fill="rgb(242,171,131)" fill-rule="evenodd" />
<path d="
M 130.852 359.426
C 130.588 360.303 130.3 361.151 129.947 361.996
C 130.009 361.582 130.28 360.815 129.95 360.448
C 129.7 360.17 128.768 360.269 128.439 360.238
C 126.955 360.098 125.468 359.857 123.975 359.836
C 117.661 359.747 111.55 362.354 106.631 366.197
C 98.99 372.166 97.021 381.831 91.974 389.601
C 90.183 392.358 88.071 395.074 85.754 397.41
C 82.946 400.24 79.766 402.592 77.346 405.807
C 74.612 409.439 72.762 413.954 72.186 418.459
C 71.083 427.103 74.74 437.422 82.581 441.964
C 87.523 444.827 93.26 446.265 98.95 446.286
C 102.952 446.3 107.078 445.298 110.944 444.318
C 111.689 444.129 114.173 444.117 114.495 443.532
C 114.964 444.119 115.176 444.833 115.409 445.537
C 114.736 444.194 112.403 445.481 111.321 445.786
C 107.388 446.897 103.105 447.799 99.01 447.875
C 85.717 448.123 71.949 439.567 70.659 425.367
C 69.922 417.26 72.134 409.26 77.497 403.026
C 81.255 398.659 86.137 395.399 89.528 390.658
C 93.088 385.681 94.986 379.838 97.992 374.561
C 102.919 365.913 110.723 359.797 120.757 358.43
C 124.118 357.972 127.691 358.081 130.852 359.426 Z"
opacity="0.996" fill="rgb(172,104,75)" fill-rule="evenodd" />
<path d="
M 129.947 361.996
C 129.736 363.117 129.515 364.257 129.332 365.38
C 128.288 365.6 127.113 365.319 126.029 365.463
C 123.839 365.754 121.535 366.581 119.614 367.675
C 109.703 373.321 105.336 386.444 107.89 397.326
C 108.679 400.684 109.667 404.009 111.495 406.962
C 112.221 408.136 114.359 410.053 114.32 411.492
C 114.275 413.135 113.356 414.94 112.988 416.543
C 112.36 419.275 112.158 422.205 111.907 424.994
C 111.334 431.359 112.947 437.443 114.495 443.532
C 114.173 444.117 111.689 444.129 110.944 444.318
C 107.078 445.298 102.952 446.3 98.95 446.286
C 93.26 446.265 87.523 444.827 82.581 441.964
C 74.74 437.422 71.083 427.103 72.186 418.459
C 72.762 413.954 74.612 409.439 77.346 405.807
C 79.766 402.592 82.946 400.24 85.754 397.41
C 88.071 395.074 90.183 392.358 91.974 389.601
C 97.021 381.831 98.99 372.166 106.631 366.197
C 111.55 362.354 117.661 359.747 123.975 359.836
C 125.468 359.857 126.955 360.098 128.439 360.238
C 128.768 360.269 129.7 360.17 129.95 360.448
C 130.28 360.815 130.009 361.582 129.947 361.996 Z"
opacity="1" fill="rgb(241,171,132)" fill-rule="evenodd" />
<path d="
M 84.471 317.6
C 85.842 306.712 94.624 294.507 106.946 298.587
C 108.786 299.196 110.588 300.329 112.116 301.504
C 120.468 307.922 123.959 320.379 122.662 330.522
C 121.392 340.453 115.063 351.747 103.678 351.082
C 102.058 350.987 100.476 350.639 98.98 350.003
C 97.005 349.163 95.145 347.898 93.535 346.48
C 85.687 339.565 83.221 327.531 84.471 317.6 Z
M 85.915 318.1
C 84.787 327.664 87.511 339.655 95.318 346.007
C 96.663 347.102 98.294 347.93 99.896 348.573
C 101.215 349.102 102.596 349.335 104.007 349.437
C 114.286 350.177 119.855 339.224 120.904 330.428
C 121.998 321.243 119.356 309.612 112.046 303.382
C 110.63 302.175 109.051 301.221 107.352 300.473
C 106.145 299.941 104.837 299.778 103.543 299.606
C 93.04 298.211 86.978 309.098 85.915 318.1 Z"
opacity="0.996" fill="rgb(171,100,72)" fill-rule="evenodd" />
<path d="
M 85.915 318.1
C 86.978 309.098 93.04 298.211 103.543 299.606
C 104.837 299.778 106.145 299.941 107.352 300.473
C 109.051 301.221 110.63 302.175 112.046 303.382
C 119.356 309.612 121.998 321.243 120.904 330.428
C 119.855 339.224 114.286 350.177 104.007 349.437
C 102.596 349.335 101.215 349.102 99.896 348.573
C 98.294 347.93 96.663 347.102 95.318 346.007
C 87.511 339.655 84.787 327.664 85.915 318.1 Z"
opacity="1" fill="rgb(241,170,130)" fill-rule="evenodd" />
<path d="
M 117.922 388.607
C 118.487 381.862 124.987 373.406 132.277 378.404
C 137.121 381.726 138.678 387.953 138.182 393.506
C 137.535 400.758 130.592 407.956 123.478 402.676
C 119.309 399.582 117.504 393.605 117.922 388.607 Z"
opacity="1" fill="rgb(26,32,52)" fill-rule="evenodd" />
<path d="
M 127.939 427.61
C 128.796 412.804 141.829 397.79 156.143 394.203
C 158.583 393.592 161.22 393.254 163.738 393.431
C 177.859 394.423 185.908 408.155 185.303 421.372
C 184.654 435.546 175.762 448.576 162.105 453.046
C 148.94 457.354 133.644 451.556 129.166 437.862
C 128.098 434.598 127.742 431.03 127.939 427.61 Z"
opacity="1" fill="rgb(24,31,51)" fill-rule="evenodd" />
<path d="
M 163.516 347.474
C 162.673 347.046 161.714 346.651 161.027 345.987
C 161.898 345.651 162.575 344.273 163.164 343.559
C 165.075 341.239 166.746 338.694 167.901 335.909
C 171.434 327.393 172.028 317.875 167.778 309.46
C 165.793 305.53 162.776 301.976 158.507 300.466
C 150.789 297.736 143.275 303.494 139.431 309.67
C 132.629 320.601 133.046 336.88 141.817 346.716
C 141.345 347.144 140.842 347.362 140.263 347.615
C 140.989 346.987 138.153 343.999 137.643 343.162
C 135.806 340.145 134.435 336.724 133.776 333.248
C 131.894 323.328 134.704 311.615 141.693 304.174
C 143.272 302.493 145.321 300.963 147.421 300
C 149.152 299.206 151.06 298.49 152.969 298.305
C 164.858 297.156 171.208 309.373 172.149 319.516
C 172.737 325.856 171.407 332.514 168.477 338.156
C 167.351 340.324 165.926 342.356 164.32 344.189
C 164.012 344.54 162.562 345.799 162.707 346.332
C 162.83 346.784 163.203 347.143 163.516 347.474 Z"
opacity="0.996" fill="rgb(165,97,71)" fill-rule="evenodd" />
<path d="
M 161.027 345.987
C 158.94 345.569 157.012 344.453 154.868 344.081
C 150.165 343.265 145.916 344.58 141.817 346.716
C 133.046 336.88 132.629 320.601 139.431 309.67
C 143.275 303.494 150.789 297.736 158.507 300.466
C 162.776 301.976 165.793 305.53 167.778 309.46
C 172.028 317.875 171.434 327.393 167.901 335.909
C 166.746 338.694 165.075 341.239 163.164 343.559
C 162.575 344.273 161.898 345.651 161.027 345.987 Z"
opacity="1" fill="rgb(242,170,130)" fill-rule="evenodd" />
<path d="
M 139.498 371.116
C 139.687 364.167 144.239 353.861 152.793 355.212
C 160.351 356.406 163.092 365.753 162.811 372.252
C 162.458 380.412 154.969 390.694 146.007 385.31
C 144.868 384.626 143.938 383.697 143.108 382.668
C 142.051 381.358 141.247 379.866 140.671 378.286
C 139.846 376.022 139.432 373.528 139.498 371.116 Z"
opacity="1" fill="rgb(26,32,52)" fill-rule="evenodd" />
<path d="
M 168.465 372.098
C 169.199 365.498 173.158 358.279 180.021 356.484
C 188.89 354.164 193.069 364.445 192.284 371.535
C 191.701 376.799 189.003 382.053 184.536 385.065
C 177.774 389.624 170.259 385.866 168.708 378.104
C 168.305 376.09 168.239 374.136 168.465 372.098 Z"
opacity="1" fill="rgb(25,31,51)" fill-rule="evenodd" />
<path d="
M 187.448 394.593
C 188.372 388.812 192.306 382.756 198.03 380.824
C 205.668 378.245 210.728 386.212 209.597 393
C 208.679 398.513 204.795 403.979 199.536 406.087
C 198.373 406.554 197.133 406.833 195.882 406.907
C 189.119 407.311 186.545 400.243 187.448 394.593 Z"
opacity="1" fill="rgb(23,30,50)" fill-rule="evenodd" />

</svg>